<svg width="50" height="50" viewBox="0 0 50 50" fill="none" xmlns="http://www.w3.org/2000/svg">
<circle cx="25" cy="25" r="24.5" fill="#0B1524"/>
<circle cx="25" cy="25" r="24.5" stroke="url(#paint0_linear_10495_1863)"/>
<circle cx="25" cy="25" r="24.5" stroke="url(#paint1_linear_10495_1863)"/>
<circle cx="25" cy="25" r="24.5" stroke="url(#paint2_angular_10495_1863)"/>
<circle cx="25" cy="25" r="24.5" stroke="url(#paint3_angular_10495_1863)"/>
<circle cx="25" cy="25" r="24.5" stroke="url(#paint4_linear_10495_1863)"/>
<path d="M34.5155 33.0375C34.5155 33.9795 34.1646 34.8054 33.6011 35.4389C33.5944 35.4464 33.5898 35.4555 33.5877 35.4653C33.5793 35.5058 33.6155 35.5414 33.6557 35.5315C35.2806 35.1311 36.5943 33.7432 36.5943 31.9206V22.472C36.5943 19.6789 35.0342 17.098 32.5017 15.7014L22.276 10.0625L20.2503 11.2086L30.4229 16.8183C32.9554 18.2148 34.5155 20.7958 34.5155 23.5888V33.0375Z" fill="url(#paint5_linear_10495_1863)"/>
<path d="M34.5155 33.0375C34.5155 33.9795 34.1646 34.8054 33.6011 35.4389C33.5944 35.4464 33.5898 35.4555 33.5877 35.4653C33.5793 35.5058 33.6155 35.5414 33.6557 35.5315C35.2806 35.1311 36.5943 33.7432 36.5943 31.9206V22.472C36.5943 19.6789 35.0342 17.098 32.5017 15.7014L22.276 10.0625L20.2503 11.2086L30.4229 16.8183C32.9554 18.2148 34.5155 20.7958 34.5155 23.5888V33.0375Z" fill="url(#paint6_linear_10495_1863)"/>
<path d="M34.5155 33.0375C34.5155 33.9795 34.1646 34.8054 33.6011 35.4389C33.5944 35.4464 33.5898 35.4555 33.5877 35.4653C33.5793 35.5058 33.6155 35.5414 33.6557 35.5315C35.2806 35.1311 36.5943 33.7432 36.5943 31.9206V22.472C36.5943 19.6789 35.0342 17.098 32.5017 15.7014L22.276 10.0625L20.2503 11.2086L30.4229 16.8183C32.9554 18.2148 34.5155 20.7958 34.5155 23.5888V33.0375Z" fill="url(#paint7_angular_10495_1863)"/>
<path d="M34.5155 33.0375C34.5155 33.9795 34.1646 34.8054 33.6011 35.4389C33.5944 35.4464 33.5898 35.4555 33.5877 35.4653C33.5793 35.5058 33.6155 35.5414 33.6557 35.5315C35.2806 35.1311 36.5943 33.7432 36.5943 31.9206V22.472C36.5943 19.6789 35.0342 17.098 32.5017 15.7014L22.276 10.0625L20.2503 11.2086L30.4229 16.8183C32.9554 18.2148 34.5155 20.7958 34.5155 23.5888V33.0375Z" fill="url(#paint8_angular_10495_1863)"/>
<path d="M34.5155 33.0375C34.5155 33.9795 34.1646 34.8054 33.6011 35.4389C33.5944 35.4464 33.5898 35.4555 33.5877 35.4653C33.5793 35.5058 33.6155 35.5414 33.6557 35.5315C35.2806 35.1311 36.5943 33.7432 36.5943 31.9206V22.472C36.5943 19.6789 35.0342 17.098 32.5017 15.7014L22.276 10.0625L20.2503 11.2086L30.4229 16.8183C32.9554 18.2148 34.5155 20.7958 34.5155 23.5888V33.0375Z" fill="url(#paint9_linear_10495_1863)"/>
<path d="M31.6572 34.6507V25.2021C31.6572 22.409 30.0971 19.8281 27.5646 18.4315L17.392 12.8219L19.4176 11.6757L29.6434 17.3147C32.1759 18.7112 33.736 21.2921 33.736 24.0852V33.5338C33.736 35.3564 32.4222 36.7444 30.7974 37.1447C30.7572 37.1546 30.7209 37.119 30.7294 37.0785C30.7315 37.0687 30.7361 37.0596 30.7427 37.0521C31.3062 36.4187 31.6572 35.5927 31.6572 34.6507Z" fill="url(#paint10_linear_10495_1863)"/>
<path d="M31.6572 34.6507V25.2021C31.6572 22.409 30.0971 19.8281 27.5646 18.4315L17.392 12.8219L19.4176 11.6757L29.6434 17.3147C32.1759 18.7112 33.736 21.2921 33.736 24.0852V33.5338C33.736 35.3564 32.4222 36.7444 30.7974 37.1447C30.7572 37.1546 30.7209 37.119 30.7294 37.0785C30.7315 37.0687 30.7361 37.0596 30.7427 37.0521C31.3062 36.4187 31.6572 35.5927 31.6572 34.6507Z" fill="url(#paint11_linear_10495_1863)"/>
<path d="M31.6572 34.6507V25.2021C31.6572 22.409 30.0971 19.8281 27.5646 18.4315L17.392 12.8219L19.4176 11.6757L29.6434 17.3147C32.1759 18.7112 33.736 21.2921 33.736 24.0852V33.5338C33.736 35.3564 32.4222 36.7444 30.7974 37.1447C30.7572 37.1546 30.7209 37.119 30.7294 37.0785C30.7315 37.0687 30.7361 37.0596 30.7427 37.0521C31.3062 36.4187 31.6572 35.5927 31.6572 34.6507Z" fill="url(#paint12_angular_10495_1863)"/>
<path d="M31.6572 34.6507V25.2021C31.6572 22.409 30.0971 19.8281 27.5646 18.4315L17.392 12.8219L19.4176 11.6757L29.6434 17.3147C32.1759 18.7112 33.736 21.2921 33.736 24.0852V33.5338C33.736 35.3564 32.4222 36.7444 30.7974 37.1447C30.7572 37.1546 30.7209 37.119 30.7294 37.0785C30.7315 37.0687 30.7361 37.0596 30.7427 37.0521C31.3062 36.4187 31.6572 35.5927 31.6572 34.6507Z" fill="url(#paint13_angular_10495_1863)"/>
<path d="M31.6572 34.6507V25.2021C31.6572 22.409 30.0971 19.8281 27.5646 18.4315L17.392 12.8219L19.4176 11.6757L29.6434 17.3147C32.1759 18.7112 33.736 21.2921 33.736 24.0852V33.5338C33.736 35.3564 32.4222 36.7444 30.7974 37.1447C30.7572 37.1546 30.7209 37.119 30.7294 37.0785C30.7315 37.0687 30.7361 37.0596 30.7427 37.0521C31.3062 36.4187 31.6572 35.5927 31.6572 34.6507Z" fill="url(#paint14_linear_10495_1863)"/>
<path fill-rule="evenodd" clip-rule="evenodd" d="M14.4038 14.5121L16.4558 13.351L26.6815 18.9899C29.214 20.3865 30.7741 22.9674 30.7741 25.7605V35.2557L30.7738 35.2555C30.739 38.0942 27.512 39.8583 24.9276 38.4332L15.6597 33.3224L14.4038 32.6477V14.5121ZM28.6954 26.9068V32.3921L21.8094 28.5948V18.5959L24.6028 20.1363C27.1353 21.5328 28.6954 24.1137 28.6954 26.9068ZM19.2109 17.163L20.2503 17.7361V29.4541L20.3594 29.5126L28.6954 34.1094V35.1705L19.2243 29.9478L19.2109 29.9554V17.163ZM17.5219 16.2316V30.8567L17.5708 30.8834L17.5219 30.911L28.6826 37.0655C28.5893 37.5564 28.003 37.8364 27.526 37.5734L16.4825 31.4835V15.6584L17.5219 16.2316Z" fill="url(#paint15_linear_10495_1863)"/>
<path fill-rule="evenodd" clip-rule="evenodd" d="M14.4038 14.5121L16.4558 13.351L26.6815 18.9899C29.214 20.3865 30.7741 22.9674 30.7741 25.7605V35.2557L30.7738 35.2555C30.739 38.0942 27.512 39.8583 24.9276 38.4332L15.6597 33.3224L14.4038 32.6477V14.5121ZM28.6954 26.9068V32.3921L21.8094 28.5948V18.5959L24.6028 20.1363C27.1353 21.5328 28.6954 24.1137 28.6954 26.9068ZM19.2109 17.163L20.2503 17.7361V29.4541L20.3594 29.5126L28.6954 34.1094V35.1705L19.2243 29.9478L19.2109 29.9554V17.163ZM17.5219 16.2316V30.8567L17.5708 30.8834L17.5219 30.911L28.6826 37.0655C28.5893 37.5564 28.003 37.8364 27.526 37.5734L16.4825 31.4835V15.6584L17.5219 16.2316Z" fill="url(#paint16_linear_10495_1863)"/>
<path fill-rule="evenodd" clip-rule="evenodd" d="M14.4038 14.5121L16.4558 13.351L26.6815 18.9899C29.214 20.3865 30.7741 22.9674 30.7741 25.7605V35.2557L30.7738 35.2555C30.739 38.0942 27.512 39.8583 24.9276 38.4332L15.6597 33.3224L14.4038 32.6477V14.5121ZM28.6954 26.9068V32.3921L21.8094 28.5948V18.5959L24.6028 20.1363C27.1353 21.5328 28.6954 24.1137 28.6954 26.9068ZM19.2109 17.163L20.2503 17.7361V29.4541L20.3594 29.5126L28.6954 34.1094V35.1705L19.2243 29.9478L19.2109 29.9554V17.163ZM17.5219 16.2316V30.8567L17.5708 30.8834L17.5219 30.911L28.6826 37.0655C28.5893 37.5564 28.003 37.8364 27.526 37.5734L16.4825 31.4835V15.6584L17.5219 16.2316Z" fill="url(#paint17_angular_10495_1863)"/>
<path fill-rule="evenodd" clip-rule="evenodd" d="M14.4038 14.5121L16.4558 13.351L26.6815 18.9899C29.214 20.3865 30.7741 22.9674 30.7741 25.7605V35.2557L30.7738 35.2555C30.739 38.0942 27.512 39.8583 24.9276 38.4332L15.6597 33.3224L14.4038 32.6477V14.5121ZM28.6954 26.9068V32.3921L21.8094 28.5948V18.5959L24.6028 20.1363C27.1353 21.5328 28.6954 24.1137 28.6954 26.9068ZM19.2109 17.163L20.2503 17.7361V29.4541L20.3594 29.5126L28.6954 34.1094V35.1705L19.2243 29.9478L19.2109 29.9554V17.163ZM17.5219 16.2316V30.8567L17.5708 30.8834L17.5219 30.911L28.6826 37.0655C28.5893 37.5564 28.003 37.8364 27.526 37.5734L16.4825 31.4835V15.6584L17.5219 16.2316Z" fill="url(#paint18_angular_10495_1863)"/>
<path fill-rule="evenodd" clip-rule="evenodd" d="M14.4038 14.5121L16.4558 13.351L26.6815 18.9899C29.214 20.3865 30.7741 22.9674 30.7741 25.7605V35.2557L30.7738 35.2555C30.739 38.0942 27.512 39.8583 24.9276 38.4332L15.6597 33.3224L14.4038 32.6477V14.5121ZM28.6954 26.9068V32.3921L21.8094 28.5948V18.5959L24.6028 20.1363C27.1353 21.5328 28.6954 24.1137 28.6954 26.9068ZM19.2109 17.163L20.2503 17.7361V29.4541L20.3594 29.5126L28.6954 34.1094V35.1705L19.2243 29.9478L19.2109 29.9554V17.163ZM17.5219 16.2316V30.8567L17.5708 30.8834L17.5219 30.911L28.6826 37.0655C28.5893 37.5564 28.003 37.8364 27.526 37.5734L16.4825 31.4835V15.6584L17.5219 16.2316Z" fill="url(#paint19_linear_10495_1863)"/>
<defs>
<linearGradient id="paint0_linear_10495_1863" x1="-0.832563" y1="25" x2="49.1674" y2="19.1836" gradientUnits="userSpaceOnUse">
<stop stop-color="#FF3873"/>
<stop offset="0.473958" stop-color="#711EFF"/>
<stop offset="1" stop-color="#3FE5FF"/>
</linearGradient>
<linearGradient id="paint1_linear_10495_1863" x1="3.09898" y1="2.30111" x2="30.296" y2="32.3659" gradientUnits="userSpaceOnUse">
<stop stop-color="#F6F063"/>
<stop offset="1" stop-color="#E07774" stop-opacity="0"/>
</linearGradient>
<radialGradient id="paint2_angular_10495_1863" cx="0" cy="0" r="1" gradientUnits="userSpaceOnUse" gradientTransform="translate(1.31822 17.5763) rotate(59.4295) scale(11.8453 11.8263)">
<stop offset="0.925861" stop-color="white" stop-opacity="0.2"/>
<stop offset="1" stop-color="white" stop-opacity="0"/>
</radialGradient>
<radialGradient id="paint3_angular_10495_1863" cx="0" cy="0" r="1" gradientUnits="userSpaceOnUse" gradientTransform="translate(8.58002 12.9394) rotate(51.9823) scale(7.73513 11.6118)">
<stop offset="0.0864251" stop-color="white" stop-opacity="0.1"/>
<stop offset="0.94115" stop-color="white" stop-opacity="0"/>
</radialGradient>
<linearGradient id="paint4_linear_10495_1863" x1="5.72387" y1="13.8876" x2="29.9144" y2="25" gradientUnits="userSpaceOnUse">
<stop stop-color="white" stop-opacity="0.2"/>
<stop offset="1" stop-opacity="0"/>
</linearGradient>
<linearGradient id="paint5_linear_10495_1863" x1="14.0343" y1="24.5" x2="36.3468" y2="22.5053" gradientUnits="userSpaceOnUse">
<stop stop-color="#FF3873"/>
<stop offset="0.473958" stop-color="#711EFF"/>
<stop offset="1" stop-color="#3FE5FF"/>
</linearGradient>
<linearGradient id="paint6_linear_10495_1863" x1="15.7791" y1="11.3914" x2="31.3568" y2="24.6252" gradientUnits="userSpaceOnUse">
<stop stop-color="#F6F063"/>
<stop offset="1" stop-color="#E07774" stop-opacity="0"/>
</linearGradient>
<radialGradient id="paint7_angular_10495_1863" cx="0" cy="0" r="1" gradientUnits="userSpaceOnUse" gradientTransform="translate(14.9888 20.2128) rotate(65.584) scale(6.46834 5.55077)">
<stop offset="0.925861" stop-color="white" stop-opacity="0.2"/>
<stop offset="1" stop-color="white" stop-opacity="0"/>
</radialGradient>
<radialGradient id="paint8_angular_10495_1863" cx="0" cy="0" r="1" gradientUnits="userSpaceOnUse" gradientTransform="translate(18.2117 17.535) rotate(59.0024) scale(4.10554 5.60722)">
<stop offset="0.0864251" stop-color="white" stop-opacity="0.1"/>
<stop offset="0.94115" stop-color="white" stop-opacity="0"/>
</radialGradient>
<linearGradient id="paint9_linear_10495_1863" x1="16.9441" y1="18.0826" x2="28.5048" y2="22.1639" gradientUnits="userSpaceOnUse">
<stop stop-color="white" stop-opacity="0.2"/>
<stop offset="1" stop-opacity="0"/>
</linearGradient>
<linearGradient id="paint10_linear_10495_1863" x1="14.0343" y1="24.5" x2="36.3468" y2="22.5053" gradientUnits="userSpaceOnUse">
<stop stop-color="#FF3873"/>
<stop offset="0.473958" stop-color="#711EFF"/>
<stop offset="1" stop-color="#3FE5FF"/>
</linearGradient>
<linearGradient id="paint11_linear_10495_1863" x1="15.7791" y1="11.3914" x2="31.3568" y2="24.6252" gradientUnits="userSpaceOnUse">
<stop stop-color="#F6F063"/>
<stop offset="1" stop-color="#E07774" stop-opacity="0"/>
</linearGradient>
<radialGradient id="paint12_angular_10495_1863" cx="0" cy="0" r="1" gradientUnits="userSpaceOnUse" gradientTransform="translate(14.9888 20.2128) rotate(65.584) scale(6.46834 5.55077)">
<stop offset="0.925861" stop-color="white" stop-opacity="0.2"/>
<stop offset="1" stop-color="white" stop-opacity="0"/>
</radialGradient>
<radialGradient id="paint13_angular_10495_1863" cx="0" cy="0" r="1" gradientUnits="userSpaceOnUse" gradientTransform="translate(18.2117 17.535) rotate(59.0024) scale(4.10554 5.60722)">
<stop offset="0.0864251" stop-color="white" stop-opacity="0.1"/>
<stop offset="0.94115" stop-color="white" stop-opacity="0"/>
</radialGradient>
<linearGradient id="paint14_linear_10495_1863" x1="16.9441" y1="18.0826" x2="28.5048" y2="22.1639" gradientUnits="userSpaceOnUse">
<stop stop-color="white" stop-opacity="0.2"/>
<stop offset="1" stop-opacity="0"/>
</linearGradient>
<linearGradient id="paint15_linear_10495_1863" x1="14.0343" y1="24.5" x2="36.3468" y2="22.5053" gradientUnits="userSpaceOnUse">
<stop stop-color="#FF3873"/>
<stop offset="0.473958" stop-color="#711EFF"/>
<stop offset="1" stop-color="#3FE5FF"/>
</linearGradient>
<linearGradient id="paint16_linear_10495_1863" x1="15.7791" y1="11.3914" x2="31.3568" y2="24.6252" gradientUnits="userSpaceOnUse">
<stop stop-color="#F6F063"/>
<stop offset="1" stop-color="#E07774" stop-opacity="0"/>
</linearGradient>
<radialGradient id="paint17_angular_10495_1863" cx="0" cy="0" r="1" gradientUnits="userSpaceOnUse" gradientTransform="translate(14.9888 20.2128) rotate(65.584) scale(6.46834 5.55077)">
<stop offset="0.925861" stop-color="white" stop-opacity="0.2"/>
<stop offset="1" stop-color="white" stop-opacity="0"/>
</radialGradient>
<radialGradient id="paint18_angular_10495_1863" cx="0" cy="0" r="1" gradientUnits="userSpaceOnUse" gradientTransform="translate(18.2117 17.535) rotate(59.0024) scale(4.10554 5.60722)">
<stop offset="0.0864251" stop-color="white" stop-opacity="0.1"/>
<stop offset="0.94115" stop-color="white" stop-opacity="0"/>
</radialGradient>
<linearGradient id="paint19_linear_10495_1863" x1="16.9441" y1="18.0826" x2="28.5048" y2="22.1639" gradientUnits="userSpaceOnUse">
<stop stop-color="white" stop-opacity="0.2"/>
<stop offset="1" stop-opacity="0"/>
</linearGradient>
</defs>
</svg>
