<svg width="32" height="32" viewBox="0 0 32 32" fill="none" xmlns="http://www.w3.org/2000/svg">
<circle cx="16" cy="16" r="16" fill="black"/>
<path fill-rule="evenodd" clip-rule="evenodd" d="M9.87316 20.4102C9.9334 20.344 10.0068 20.2911 10.0886 20.2549C10.1704 20.2186 10.2589 20.1999 10.3484 20.1998L25.0108 20.2118C25.0732 20.212 25.1343 20.2302 25.1865 20.2644C25.2388 20.2985 25.28 20.3472 25.3052 20.4043C25.3304 20.4614 25.3384 20.5247 25.3283 20.5863C25.3182 20.6479 25.2904 20.7053 25.2484 20.7514L22.126 24.1894C22.0657 24.2557 21.9923 24.3086 21.9104 24.3449C21.8285 24.3811 21.74 24.3998 21.6504 24.3998L6.98837 24.3878C6.92593 24.3877 6.86487 24.3694 6.8126 24.3353C6.76034 24.3011 6.71912 24.2525 6.69396 24.1953C6.6688 24.1382 6.66077 24.0749 6.67086 24.0133C6.68094 23.9517 6.70871 23.8944 6.75077 23.8482L9.87316 20.4102ZM25.2484 17.5482C25.2904 17.5944 25.3182 17.6517 25.3283 17.7133C25.3384 17.7749 25.3304 17.8382 25.3052 17.8953C25.28 17.9525 25.2388 18.0011 25.1865 18.0353C25.1343 18.0694 25.0732 18.0877 25.0108 18.0878L10.3488 18.0998C10.2592 18.0998 10.1707 18.0811 10.0888 18.0449C10.0068 18.0086 9.9334 17.9557 9.87316 17.8894L6.75077 14.4494C6.70871 14.4033 6.68094 14.3459 6.67086 14.2843C6.66077 14.2227 6.6688 14.1594 6.69396 14.1023C6.71912 14.0452 6.76034 13.9965 6.8126 13.9624C6.86487 13.9282 6.92593 13.91 6.98837 13.9098L21.6508 13.8978C21.7403 13.8979 21.8288 13.9166 21.9106 13.9529C21.9924 13.9891 22.0658 14.042 22.126 14.1082L25.2484 17.5482ZM9.87316 7.81022C9.9334 7.74401 10.0068 7.69109 10.0886 7.65485C10.1704 7.61863 10.2589 7.59988 10.3484 7.59982L25.0108 7.61182C25.0732 7.61195 25.1343 7.63021 25.1865 7.66437C25.2388 7.69854 25.28 7.74715 25.3052 7.8043C25.3304 7.86145 25.3384 7.92467 25.3283 7.98629C25.3182 8.0479 25.2904 8.10526 25.2484 8.15142L22.126 11.5894C22.0657 11.6557 21.9923 11.7086 21.9104 11.7449C21.8285 11.7811 21.74 11.7998 21.6504 11.7998L6.98837 11.7878C6.92593 11.7877 6.86487 11.7694 6.8126 11.7353C6.76034 11.7011 6.71912 11.6525 6.69396 11.5953C6.6688 11.5382 6.66077 11.4749 6.67086 11.4133C6.68094 11.3517 6.70871 11.2944 6.75077 11.2482L9.87316 7.81022Z" fill="url(#paint0_linear_10281_22856)"/>
<defs>
<linearGradient id="paint0_linear_10281_22856" x1="7.23317" y1="24.7662" x2="24.766" y2="7.23342" gradientUnits="userSpaceOnUse">
<stop stop-color="#9945FF"/>
<stop offset="0.2" stop-color="#7962E7"/>
<stop offset="1" stop-color="#00D18C"/>
</linearGradient>
</defs>
</svg>
